# xmcd
#
# Track frame offsets:
#	150
#	30022
#	59726
#	85193
#	113908
#	143889
#	167905
#	205550
#	232166
#	267533
#	294380
#
# Disc length: 4272 seconds
#
# Revision: 0
# Processed by: cddbd v1.5.2PL0 Copyright (c) Steve Scherf et al.
# Submitted via: audiograbber 1.83.01
#
DISCID=9d10ae0b
DTITLE=Cdpool - Dance March 10 CD1
DYEAR=2010
DGENRE=Dance
TTITLE0=Mary J Blige - I Am (Moto Blanco Club Mix)
TTITLE1=Sash! Ft Jessy - All Is Love (4 Strings Extended Vocal)
TTITLE2=Cheryl Cole - Parachute (Buzz Junkies Club Mix)
TTITLE3=David Guetta Ft Kid Cudi - Memories (Bingo Players Mix)
TTITLE4=Chelley - Took The Night (Fonzerelli Remix)
TTITLE5=Jason Derulo - In My Head (Wideboys Club Mix)
TTITLE6=Eddie Kid Vs Donna and Anthony - Every Little Thing (Original Mix)
TTITLE7=Sun - Fancy Free (Digital Dog Club Mix)
TTITLE8=Mr DYF Vs Katerine Ellis - All Day Lover (Original Mix)
TTITLE9=Katerine - Enjoy The Day (Daniel Bovie Remix)
TTITLE10=M'Black - Heartbreak (Extended Mix)
EXTD=
EXTT0=
EXTT1=
EXTT2=
EXTT3=
EXTT4=
EXTT5=
EXTT6=
EXTT7=
EXTT8=
EXTT9=
EXTT10=
PLAYORDER=
